HIERARCHY
ROOT Hips
{
	OFFSET 0.00000 0.00000 0.00000
	CHANNELS 6 Xposition Yposition Zposition Zrotation Yrotation Xrotation 
	JOINT LHipJoint
	{
		OFFSET 0 0 0
		CHANNELS 3 Zrotation Yrotation Xrotation
		JOINT LeftUpLeg
		{
			OFFSET 1.53139 -1.83434 0.76626
			CHANNELS 3 Zrotation Yrotation Xrotation
			JOINT LeftLeg
			{
				OFFSET 2.56112 -7.03663 0.00000
				CHANNELS 3 Zrotation Yrotation Xrotation
				JOINT LeftFoot
				{
					OFFSET 2.59983 -7.14299 0.00000
					CHANNELS 3 Zrotation Yrotation Xrotation
					JOINT LeftToeBase
					{
						OFFSET 0.13742 -0.37757 2.00054
						CHANNELS 3 Zrotation Yrotation Xrotation
						End Site
						{
							OFFSET 0.00000 -0.00000 1.02897
						}
					}
				}
			}
		}
	}
	JOINT RHipJoint
	{
		OFFSET 0 0 0
		CHANNELS 3 Zrotation Yrotation Xrotation
		JOINT RightUpLeg
		{
			OFFSET -1.40122 -1.83435 0.76627
			CHANNELS 3 Zrotation Yrotation Xrotation
			JOINT RightLeg
			{
				OFFSET -2.54052 -6.98003 0.00000
				CHANNELS 3 Zrotation Yrotation Xrotation
				JOINT RightFoot
				{
					OFFSET -2.63179 -7.23079 0.00000
					CHANNELS 3 Zrotation Yrotation Xrotation
					JOINT RightToeBase
					{
						OFFSET -0.24131 -0.66299 2.03908
						CHANNELS 3 Zrotation Yrotation Xrotation
						End Site
						{
							OFFSET -0.00000 -0.00000 1.07391
						}
					}
				}
			}
		}
	}
	JOINT LowerBack
	{
		OFFSET 0 0 0
		CHANNELS 3 Zrotation Yrotation Xrotation
		JOINT Spine
		{
			OFFSET 0.01174 2.10302 -0.29778
			CHANNELS 3 Zrotation Yrotation Xrotation
			JOINT Spine1
			{
				OFFSET 0.00772 2.13227 -0.01247
				CHANNELS 3 Zrotation Yrotation Xrotation
				JOINT Neck
				{
					OFFSET 0 0 0
					CHANNELS 3 Zrotation Yrotation Xrotation
					JOINT Neck1
					{
						OFFSET -0.09219 1.60848 0.31481
						CHANNELS 3 Zrotation Yrotation Xrotation
						JOINT Head
						{
							OFFSET 0.13974 1.65456 -0.31134
							CHANNELS 3 Zrotation Yrotation Xrotation
							End Site
							{
								OFFSET 0.04742 1.69515 -0.14578
							}
						}
					}
				}
				JOINT LeftShoulder
				{
					OFFSET 0 0 0
					CHANNELS 3 Zrotation Yrotation Xrotation
					JOINT LeftArm
					{
						OFFSET 3.24909 1.02882 -0.23993
						CHANNELS 3 Zrotation Yrotation Xrotation
						JOINT LeftForeArm
						{
							OFFSET 5.32955 -0.00000 -0.00000
							CHANNELS 3 Zrotation Yrotation Xrotation
							JOINT LeftHand
							{
								OFFSET 3.69232 -0.00000 -0.00000
								CHANNELS 3 Zrotation Yrotation Xrotation
								JOINT LeftFingerBase
								{
									OFFSET 0 0 0
									CHANNELS 3 Zrotation Yrotation Xrotation
									JOINT LeftHandIndex1
									{
										OFFSET 0.53660 -0.00000 -0.00000
										CHANNELS 3 Zrotation Yrotation Xrotation
										End Site
										{
											OFFSET 0.43262 -0.00000 -0.00000
										}
									}
								}
								JOINT LThumb
								{
									OFFSET 0 0 0
									CHANNELS 3 Zrotation Yrotation Xrotation
									End Site
									{
										OFFSET 0.43922 -0.00000 0.43922
									}
								}
							}
						}
					}
				}
				JOINT RightShoulder
				{
					OFFSET 0 0 0
					CHANNELS 3 Zrotation Yrotation Xrotation
					JOINT RightArm
					{
						OFFSET -3.21387 0.93002 -0.34594
						CHANNELS 3 Zrotation Yrotation Xrotation
						JOINT RightForeArm
						{
							OFFSET -5.23431 -0.00000 0.00000
							CHANNELS 3 Zrotation Yrotation Xrotation
							JOINT RightHand
							{
								OFFSET -3.55301 -0.00000 -0.00000
								CHANNELS 3 Zrotation Yrotation Xrotation
								JOINT RightFingerBase
								{
									OFFSET 0 0 0
									CHANNELS 3 Zrotation Yrotation Xrotation
									JOINT RightHandIndex1
									{
										OFFSET -0.77252 -0.00000 -0.00000
										CHANNELS 3 Zrotation Yrotation Xrotation
										End Site
										{
											OFFSET -0.62283 -0.00000 -0.00000
										}
									}
								}
								JOINT RThumb
								{
									OFFSET 0 0 0
									CHANNELS 3 Zrotation Yrotation Xrotation
									End Site
									{
										OFFSET -0.63234 -0.00000 0.63234
									}
								}
							}
						}
					}
				}
			}
		}
	}
}
MOTION
Frames: 10
Frame Time: .0083333
18.0963 17.7682 -7.7605 0 0 0 0 0 0 -21 0 0 0 0 0 0 0 0 0 0 0 0 0 0 21 0 0 0 0 0 0 0 0 0 0 0 0 0 0 0 0 0 0 0 0 0 0 -16 0 0 21 0 0 11 0 0 0 -8 0 0 0 0 0 0 0 0 0 0 0 0 0 0 0 0 0 0 0 0 8 0 0 0 0 0 0 0 0 0 0 0 0 0 0 0 0 0
18.0963 17.7682 -7.7605 2.4123 -46.1634 0.9445 0.0000 0.0000 0.0000 -23.6652 -3.3062 -6.2126 1.8663 8.5819 24.4961 0.7418 -8.0297 -15.5179 0.0987 -2.0263 -5.5783 0.0000 0.0000 0.0000 23.3340 3.7044 -8.8378 -3.0871 -10.8348 31.7247 -1.4148 4.4779 -21.4676 -0.1290 -2.3151 6.3774 -2.6816 -0.1181 4.2868 0.0933 -0.2910 -0.0248 1.6187 -0.1133 -2.4157 -9.7586 -5.4701 -22.4034 9.1267 -7.1629 25.4448 3.8889 -2.9625 12.9471 0.0000 -0.0000 0.0000 -87.7977 3.9769 30.6193 17.8263 -27.9342 -4.4676 -0.0000 -0.0000 7.2922 18.3385 22.6982 7.2888 -7.1250 0.0000 -0.0000 -11.1226 53.4183 -2.3254 0.0000 -0.0000 0.0000 91.3384 -8.3558 18.6321 -18.3261 28.5727 -4.7042 0.0000 0.0000 3.1048 -14.9654 8.8111 -2.3446 7.1250 -0.0000 -0.0000 8.5840 -20.9082 5.0110
18.0861 17.7685 -7.7652 2.3447 -46.2227 1.0414 0.0000 0.0000 0.0000 -23.5717 -3.3539 -6.3818 1.9054 8.6663 24.7568 0.7342 -8.0471 -15.4448 0.0859 -1.8902 -5.2023 0.0000 0.0000 0.0000 23.4009 3.6202 -8.8957 -3.0786 -10.8212 31.6793 -1.4117 4.5893 -21.4289 -0.1267 -2.2945 6.3202 -2.6335 -0.0803 4.2623 0.1003 -0.2372 -0.0163 1.5954 -0.0874 -2.3959 -9.7596 -5.4624 -22.3209 9.0108 -7.1339 25.5562 3.8521 -2.9679 12.9666 -0.0000 -0.0000 0.0000 -87.7816 3.9882 30.5996 17.8789 -28.0019 -4.4923 -0.0000 -0.0000 7.1736 18.2083 22.7677 7.2547 -7.1250 0.0000 -0.0000 -11.2824 53.4643 -2.3722 -0.0000 -0.0000 0.0000 91.3979 -8.3503 18.0534 -18.2287 28.4490 -4.6577 0.0000 0.0000 4.1014 -16.1325 7.5299 -2.1707 7.1250 -0.0000 -0.0000 7.7787 -22.1690 4.3073
18.0789 17.7663 -7.7736 2.2208 -46.2565 1.1906 0.0000 0.0000 0.0000 -23.4125 -3.3620 -6.6472 1.9595 8.7811 25.1131 0.7157 -8.2006 -15.2834 0.0589 -1.5654 -4.3061 0.0000 0.0000 0.0000 23.5311 3.5686 -8.9620 -3.0607 -10.7927 31.5838 -1.4074 4.5931 -21.3947 -0.1144 -2.1811 6.0065 -2.6004 -0.0562 4.3856 0.1391 -0.2070 -0.0911 1.6155 -0.0697 -2.5435 -9.7530 -5.4238 -22.1704 8.9117 -7.0754 25.6611 3.8266 -2.9595 12.9666 0.0000 0.0000 0.0000 -87.7126 4.1204 30.7628 17.9438 -28.0851 -4.5227 -0.0000 -0.0000 6.8066 18.3029 22.8761 7.3272 -7.1250 0.0000 -0.0000 -11.2324 53.5909 -2.3964 0.0000 0.0000 0.0000 91.3692 -8.5072 17.9823 -18.2145 28.4309 -4.6509 0.0000 0.0000 4.4205 -16.8013 6.7297 -2.0265 7.1250 -0.0000 -0.0000 7.3142 -22.9676 3.9113
18.0718 17.7622 -7.7795 1.9552 -46.2918 1.3191 0.0000 0.0000 0.0000 -23.1729 -3.4152 -6.7552 2.0161 8.8995 25.4815 0.6894 -8.2549 -15.0288 0.0269 -1.0594 -2.9122 0.0000 0.0000 0.0000 23.7662 3.5580 -8.8624 -3.0432 -10.7647 31.4902 -1.4029 4.6648 -21.3497 -0.1265 -2.2925 6.3146 -2.4267 -0.0137 4.5866 0.1828 -0.1457 -0.0925 1.5597 -0.0396 -2.6609 -9.6630 -5.3927 -21.9750 8.7353 -7.0332 25.7153 3.7521 -2.9609 12.9318 0.0000 -0.0000 0.0000 -87.6598 4.1873 30.7680 18.0098 -28.1698 -4.5539 -0.0000 -0.0000 6.7077 18.0935 22.9563 7.2622 -7.1250 0.0000 -0.0000 -11.4769 53.6328 -2.4615 0.0000 -0.0000 0.0000 91.3294 -8.6268 18.1621 -18.2259 28.4455 -4.6564 0.0000 0.0000 4.2959 -16.7929 6.6985 -2.0161 7.1250 -0.0000 -0.0000 7.3213 -23.0001 3.9096
18.0620 17.7581 -7.7866 1.8212 -46.3275 1.2996 0.0000 0.0000 0.0000 -23.0131 -3.3628 -6.8722 2.0818 9.0343 25.9028 0.6547 -8.4451 -14.7092 0.0058 -0.4897 -1.3456 0.0000 0.0000 0.0000 23.9196 3.5496 -8.6704 -3.0233 -10.7327 31.3837 -1.3969 4.7471 -21.2926 -0.1372 -2.3869 6.5762 -2.3688 0.0366 4.7582 0.2068 -0.0787 0.0024 1.5477 -0.0079 -2.6624 -9.5943 -5.4035 -21.8674 8.5550 -7.0262 25.7037 3.6709 -2.9771 12.8931 0.0000 -0.0000 0.0000 -87.6835 4.0557 30.5490 18.0276 -28.1925 -4.5623 -0.0000 -0.0000 6.7581 17.9115 23.1939 7.2545 -7.1250 0.0000 -0.0000 -11.7619 53.8375 -2.5831 0.0000 -0.0000 0.0000 91.3404 -8.5059 17.8633 -18.1158 28.3052 -4.6040 0.0000 0.0000 4.6321 -16.4215 7.1053 -2.0878 7.1250 -0.0000 -0.0000 7.5808 -22.5945 4.1215
18.0519 17.7542 -7.7986 1.8162 -46.3156 1.2986 0.0000 0.0000 0.0000 -22.8948 -3.1178 -7.2528 2.1616 9.1948 26.4066 0.6540 -8.6344 -14.7363 0.0426 -1.3317 -3.6619 0.0000 0.0000 0.0000 24.0031 3.5162 -8.6054 -2.9979 -10.6917 31.2470 -1.3879 4.6448 -21.2333 -0.1149 -2.1855 6.0186 -2.4444 0.0259 4.9036 0.2209 -0.1006 0.0231 1.6065 -0.0173 -2.7216 -9.5870 -5.3734 -21.9182 8.5275 -6.9815 25.8126 3.6694 -2.9595 12.9409 -0.0000 0.0000 0.0000 -87.7432 4.0234 30.1815 18.0524 -28.2242 -4.5740 -0.0000 -0.0000 6.8196 18.0933 23.1658 7.3241 -7.1250 0.0000 -0.0000 -11.5665 53.8433 -2.5409 -0.0000 0.0000 0.0000 91.3367 -8.4971 17.6523 -18.0697 28.2463 -4.5822 0.0000 0.0000 4.8589 -15.7454 7.9787 -2.2411 7.1250 -0.0000 -0.0000 8.0463 -21.7244 4.5405
18.0418 17.7507 -7.8090 1.6980 -46.3027 1.4121 0.0000 0.0000 0.0000 -22.6976 -3.0100 -7.6818 2.2575 9.3829 27.0007 0.7055 -8.6890 -15.2607 0.1714 -2.6673 -7.3539 0.0000 0.0000 0.0000 24.1477 3.4041 -8.6001 -2.9674 -10.6421 31.0820 -1.3798 4.6455 -21.1686 -0.0922 -1.9580 5.3895 -2.3954 0.0112 5.0282 0.2549 -0.1200 0.0017 1.6158 -0.0260 -2.8127 -9.7045 -5.3447 -21.8760 8.6198 -6.9390 25.9005 3.7367 -2.9425 12.9724 -0.0000 0.0000 0.0000 -87.8226 4.1266 29.7743 18.1120 -28.3004 -4.6022 -0.0000 -0.0000 6.9776 18.4766 23.1460 7.4825 -7.1250 0.0000 -0.0000 -11.1711 53.8954 -2.4666 -0.0000 0.0000 0.0000 91.2643 -8.6899 18.2476 -18.2298 28.4504 -4.6582 0.0000 0.0000 3.9587 -15.3875 8.7346 -2.3932 7.1250 -0.0000 -0.0000 8.2831 -20.9660 4.8206
18.0302 17.7515 -7.8172 1.5279 -46.3549 1.4926 0.0000 0.0000 0.0000 -22.4862 -3.0222 -8.0281 2.3734 9.6040 27.7036 0.7227 -8.8912 -15.4643 0.1529 -2.5195 -6.9436 0.0000 0.0000 0.0000 24.3151 3.2553 -8.5048 -2.9316 -10.5834 30.8875 -1.3755 4.8534 -21.1106 -0.0969 -2.0073 5.5257 -2.2914 0.0859 5.1651 0.2704 -0.0172 0.0323 1.5660 0.0241 -2.8627 -9.8266 -5.4014 -21.8150 8.6882 -7.0139 25.9955 3.7737 -2.9811 13.0158 -0.0000 0.0000 0.0000 -87.7738 4.1955 29.7231 18.1910 -28.4011 -4.6397 -0.0000 -0.0000 7.0187 18.6563 23.4645 7.6569 -7.1250 0.0000 -0.0000 -11.1252 54.2504 -2.5532 -0.0000 0.0000 0.0000 91.3110 -8.7991 18.8691 -18.3914 28.6554 -4.7354 0.0000 0.0000 2.8723 -15.9840 8.6327 -2.4619 7.1250 -0.0000 -0.0000 7.8569 -21.0410 4.5544
18.0193 17.7553 -7.8264 1.3055 -46.3757 1.6303 0.0000 0.0000 0.0000 -22.2408 -3.1433 -8.4185 2.5130 9.8614 28.5292 0.6922 -9.0080 -15.1880 0.0961 -1.9997 -5.5048 0.0000 0.0000 0.0000 24.5418 3.2337 -8.3572 -2.8890 -10.5132 30.6552 -1.3656 4.9190 -21.0249 -0.1057 -2.0961 5.7713 -2.1083 0.1374 5.2395 0.2397 0.0602 0.1275 1.4257 0.0583 -2.8093 -9.6917 -5.4313 -21.9056 8.6312 -7.0918 26.1239 3.7162 -3.0073 13.0874 0.0000 -0.0000 0.0000 -87.5644 4.1309 29.7784 18.2843 -28.5197 -4.6842 -0.0000 -0.0000 6.8338 18.4535 23.7466 7.6533 -7.1250 0.0000 -0.0000 -11.4549 54.4953 -2.6991 0.0000 -0.0000 0.0000 91.4950 -8.6817 18.7734 -18.3513 28.6046 -4.7162 0.0000 0.0000 3.0866 -16.2747 8.4307 -2.4509 7.1250 -0.0000 -0.0000 7.6522 -21.2346 4.3998
